<svg width="77" height="18" viewBox="0 0 77 18" fill="none" xmlns="http://www.w3.org/2000/svg">
<path d="M0.960693 17.5502H18.0607V0.450195H0.960693V17.5502ZM14.7694 7.35486H11.156V3.74153H14.7694V7.35486ZM4.25136 3.74153H7.86671V10.6455H14.7694V14.2589H4.25136V3.74153ZM29.196 0.450195C27.505 0.450195 25.8519 0.951649 24.4459 1.89114C23.0398 2.83062 21.944 4.16595 21.2968 5.72826C20.6497 7.2906 20.4804 9.00966 20.8103 10.6682C21.1402 12.3267 21.9545 13.8502 23.1502 15.0459C24.346 16.2417 25.8694 17.056 27.528 17.3859C29.1866 17.7158 30.9056 17.5465 32.468 16.8994C34.0303 16.2523 35.3656 15.1564 36.3051 13.7503C37.2446 12.3443 37.746 10.6912 37.746 9.0002C37.7434 6.7334 36.8417 4.56022 35.2388 2.95736C33.636 1.3545 31.4628 0.452842 29.196 0.450195ZM29.196 14.2589C28.156 14.2589 27.1392 13.9505 26.2744 13.3726C25.4097 12.7948 24.7356 11.9735 24.3376 11.0126C23.9396 10.0517 23.8355 8.9944 24.0384 7.97426C24.2413 6.9542 24.7422 6.0172 25.4776 5.28176C26.213 4.54632 27.15 4.04548 28.1701 3.84258C29.1902 3.63967 30.2475 3.74381 31.2084 4.14182C32.1693 4.53984 32.9906 5.21386 33.5684 6.07866C34.1463 6.9434 34.4547 7.96013 34.4547 9.0002C34.4526 10.3943 33.8978 11.7306 32.9121 12.7163C31.9264 13.7021 30.59 14.2567 29.196 14.2589ZM68.342 0.450195C66.6507 0.450069 64.9978 0.951402 63.5917 1.89081C62.1856 2.83022 61.0896 4.1655 60.4424 5.7278C59.7952 7.29006 59.6257 9.00926 59.9556 10.6678C60.2854 12.3264 61.0996 13.8499 62.2954 15.0457C63.491 16.2415 65.0145 17.0559 66.6734 17.3859C68.3314 17.7158 70.0507 17.5465 71.6134 16.8995C73.1754 16.2523 74.5107 15.1565 75.45 13.7504C76.39 12.3443 76.8914 10.6913 76.8914 9.0002C76.8887 6.73353 75.9874 4.56044 74.3847 2.9576C72.782 1.35475 70.6087 0.453022 68.342 0.450195ZM68.342 14.2589C67.302 14.259 66.2854 13.9507 65.4203 13.3729C64.5554 12.7952 63.8813 11.9739 63.4832 11.0131C63.085 10.0522 62.9808 8.9948 63.1836 7.97466C63.3865 6.9546 63.8873 6.01753 64.6227 5.282C65.3581 4.54649 66.2954 4.04558 67.3154 3.84262C68.3354 3.63966 69.3927 3.74376 70.3534 4.14176C71.3147 4.53976 72.136 5.21377 72.714 6.0786C73.2914 6.9434 73.6 7.96013 73.6 9.0002C73.598 10.3941 73.0434 11.7303 72.0574 12.7161C71.072 13.7018 69.736 14.2566 68.342 14.2589ZM48.7687 0.450195C47.0776 0.450195 45.4246 0.951649 44.0186 1.89114C42.6125 2.83062 41.5166 4.16595 40.8695 5.72826C40.2224 7.2906 40.0531 9.00966 40.383 10.6682C40.7129 12.3267 41.5272 13.8502 42.7229 15.0459C43.9186 16.2417 45.4421 17.056 47.1006 17.3859C48.7592 17.7158 50.4783 17.5465 52.0406 16.8994C53.603 16.2523 54.9382 15.1564 55.8778 13.7503C56.8172 12.3443 57.3187 10.6912 57.3187 9.0002C57.316 6.7334 56.4144 4.56022 54.8115 2.95736C53.2086 1.3545 51.0355 0.452842 48.7687 0.450195ZM48.7687 14.2589C47.7996 14.2593 46.8494 13.9921 46.0226 13.4865C45.196 12.981 44.525 12.2569 44.0838 11.3941C43.6428 10.5313 43.4486 9.5634 43.5228 8.59726C43.5971 7.63106 43.9368 6.7042 44.5046 5.91893C45.0724 5.1337 45.8462 4.5206 46.7404 4.14734C47.6346 3.77406 48.6146 3.65514 49.5722 3.80369C50.5298 3.95224 51.4276 4.36248 52.1668 4.98914C52.9059 5.6158 53.4575 6.43453 53.7607 7.35486H48.7687V10.6455H53.7607C53.4134 11.6957 52.7444 12.61 51.8483 13.2585C50.9523 13.9071 49.8748 14.2571 48.7687 14.2589Z" fill="#DAC5A7"/>
</svg>
